<?xml version="1.0" encoding="utf-8"?>
<!-- Generator: Adobe Illustrator 23.0.0, SVG Export Plug-In . SVG Version: 6.00 Build 0)  -->
<svg version="1.1" height="600" width="600" id="logo" xmlns="http://www.w3.org/2000/svg" xmlns:xlink="http://www.w3.org/1999/xlink" x="0px" y="0px"
	 viewBox="0 0 1920 1920" style="enable-background:new 0 0 1920 1920;" xml:space="preserve">
<style type="text/css">
	.st0{fill:#EC262B;}
</style>
<g>
	<path fill="#6e6e6e" d="M1106.17,1130.92c-2.82-57.1-6.11-104.97-6.63-152.87c-0.09-7.98,10.68-17.59,18.49-23.91
		c52.24-42.34,105.04-83.99,155.31-132.67c-72.66,15.8-145.32,31.6-223.85,48.68c39.61,69.22,37.85,143.28,42.07,216.7
		c1.5,26.1-1.08,40.31-31.91,38.96c-53.23-2.33-106.6-1.28-159.86-3.23c-25.29-0.93-36.65-15.67-29.92-41.28
		c12.06-45.87,25.81-91.36,35.67-137.69c2.14-10.03-5.97-28.12-14.85-33.61c-38.05-23.5-77.27-45.55-117.7-64.68
		c-79.6-37.64-102.08-107.45-57.22-184.72c23.04-39.69,22.98-39.58-16.5-62.85c-34.05-20.07-67.64-40.97-102.11-60.28
		c-8.69-4.87-20.34-7.97-30.04-6.84c-27.44,3.21-32.79,16.94-15.22,38.49c13.5,16.55,28.51,31.99,43.89,46.84
		c21.29,20.56,39.82,41.5,36.83,74.45c-0.61,6.75,5.63,19.15,10.95,20.57c28.6,7.63,21.49,24.84,16.59,44.96
		c-13.91,57.04-25.45,114.65-38.83,171.83c-8.11,34.67,2.64,61.75,26.07,87.65c22.79,25.19,42.85,53.11,61.68,81.44
		c5.18,7.78,1.67,21.34,2.15,32.25c-10.06-3.55-23.24-4.21-29.66-11.13c-31.95-34.5-65.3-68.49-91.48-107.18
		c-12.03-17.78-15.01-47.01-11.13-69.12c7.9-44.96,21.78-89.1,36.1-132.61c8.1-24.62,2.93-41.75-13.35-60.94
		c-14.6-17.21-23.24-39.38-35.41-58.79c-18.65-29.74-37.34-59.51-57.42-88.29c-14.63-20.97-21.44-42.26-9-65.84
		c12.64-23.97,35.53-27.62,60.16-29.08c44.55-2.64,82.19,15.72,115.75,40.61c44.8,33.22,84.74,37.65,136.39,9.21
		c35.61-19.61,81.86-26.08,123.61-27.01c85.3-1.89,170.77,3.91,256.17,6.54c0.49,4.34,0.98,8.67,1.47,13.01
		c-18.28,3.71-36.52,10.36-54.85,10.61c-72.42,1.01-145.26-4.71-217.2,1.15c-66.36,5.4-127.7,31.85-166.4,90.47
		c-15.4,23.33-22.5,52.48-31.17,79.68c-2.44,7.65,0.13,21.67,5.6,25.69c5.32,3.9,17.89,0.31,26.27-2.75
		c32.32-11.79,64.25-24.68,98.65-31.05c-14.92,11.78-30.82,22.54-44.55,35.57c-24.9,23.65-23.43,45.51,5.67,61.96
		c46.77,26.44,94.81,50.62,146.5,77.97c-3.26-44.47-7.36-89.62-9.66-134.85c-2.34-45.91-4.11-91.92-3.85-137.88
		c0.21-36.3,13.86-51.53,50.05-52.29c35.99-0.75,72.11,4.14,110.88,13.36c-18.36,10.54-37.68,19.73-54.79,32.01
		c-15.31,10.99-42.37,11.18-43.42,43.75c41.25-21.09,78.69-40.24,121.47-62.12c-7.31,31.82-13.3,57.87-20.06,87.3
		c65.1-8.92,125.91-17.25,186.72-25.58c0.95,2.77,1.9,5.53,2.85,8.3c-7.38,3.51-14.45,8.88-22.2,10.21
		c-43.17,7.37-86.33,15.71-129.86,19.85c-32.39,3.08-48.85,15.71-45.06,52.77c62.63-8.74,125.23-17.48,187.83-26.21
		c1.05,2.79,2.09,5.57,3.14,8.36c-6.07,3.66-11.71,8.92-18.29,10.66c-18.57,4.92-37.39,11.1-56.33,11.97
		c-77.53,3.54-136.12,45.05-191.9,92.72c-5.53,4.72-8.93,11.93-9.67,23.46c78.33-81.91,181.31-102.98,284.8-120.19
		c1.47-9.82,2.69-16.06,3.25-22.37c0.45-5.06,0.09-10.18,0.09-19.2c-62.77,8.23-123.49,16.2-184.2,24.16
		c-0.87-3.94-1.73-7.88-2.6-11.82c57.93-23.89,123.26-19.62,184.68-39.44c0.72-10.34,1.49-21.53,2.51-36.3
		c-58.65,6.79-114.44,13.24-174.51,20.19c11.11-40.21,6.41-84.22,55.86-99.64c3.81-1.19,8.33-4.22,9.96-7.62
		c38.86-80.82,129.56-98.12,188.05-156.8c-12.05,62.73,3.27,128.28-34.66,187.61c25.85,28.46,6.83,63.88,4.42,97.59
		c-4.04,56.46-12.02,112.66-19.18,168.87c-1.29,10.15-3.98,22.13-10.43,29.3C1257.03,966.57,1185.33,1044.43,1106.17,1130.92z
		 M1345.4,546.87c2.93-27.71,5.51-52.07,8.98-84.93c-34.74,25.22-62.03,45.03-94.59,68.68
		C1292.28,536.78,1316.18,541.32,1345.4,546.87z"/>
	<path fill="#6e6e6e" d="M790.89,1719.62c36.93-34.94,72.41-68.52,107.9-102.1c-0.68-2.77-1.35-5.54-2.03-8.3c-101.94,48.75-205.25,85-323.47,41.48
		c59.54-48.31,121.53-80.13,193.96-81.59c51.9-1.05,103.93,8.29,156.01,11.12c27.14,1.47,54.77,1.07,81.72-2.25
		c109.95-13.52,216.1-11.35,306.61,65.32c5.4,4.57,10.34,9.69,17.5,16.44c-114.58,40.96-214.66,2.24-313.03-48.96
		c-0.99,2.6-1.98,5.21-2.97,7.81c35.29,33.02,70.58,66.05,105.82,99.03c-17.01,28.64-33.95,30.28-50.03,13.03
		c-23.99-25.74-45.1-54.14-68.11-80.82c-38.19-44.3-55.13-43.87-94.59-0.08c-24.28,26.93-48.79,53.72-74.45,79.32
		C816.82,1743.94,801.81,1743.89,790.89,1719.62z"/>
	<path fill="#6e6e6e" d="M801.73,1246.71c127.5,40.35,254.25,37.65,381.38-6.95c-12.49,102.19-57.95,150.02-153.99,148.52
		c-29.9-0.46-59.81,0.32-89.72,0.67c-59.95,0.71-104.01-28.85-124.59-83.95c-5.9-15.8-11.31-31.78-16.94-47.67
		C799.16,1253.79,800.44,1250.25,801.73,1246.71z"/>
	<path fill="#6e6e6e" d="M416.3,1144.07c111.05,76.08,171.78,177.85,185.04,310.83C492.68,1416.35,395.36,1231.85,416.3,1144.07z"/>
	<path fill="#6e6e6e" d="M747.51,1533.17c-85.25,70.49-293.17,83.48-362.08,26.53C456.08,1490.92,674.91,1483.86,747.51,1533.17z"/>
	<path fill="#6e6e6e" d="M1524.08,1577.99c-89.12,51.73-299.33,29.38-357.52-38.01C1236.65,1485.9,1455.62,1509.18,1524.08,1577.99z"/>
	<path fill="#6e6e6e" d="M1298.73,1365.49c-22.39,92.5-201.7,206.24-298,192.94C1029.56,1467.11,1188.97,1363.9,1298.73,1365.49z"/>
	<path fill="#6e6e6e" d="M1315.96,1464.76c-1.77-116.38,107-270.19,194.09-302.62C1513.91,1275.53,1415.06,1428.2,1315.96,1464.76z"/>
	<path fill="#6e6e6e" d="M1352.77,1480.14c76.67-69.91,285.81-93.55,362.72-43.02C1628.63,1510.82,1478.32,1527.4,1352.77,1480.14z"/>
	<path fill="#6e6e6e" d="M200.55,1412.76c98.27-37.73,281.75-23.73,354.89,51.79C479.43,1513.11,275.27,1491.18,200.55,1412.76z"/>
	<path fill="#6e6e6e" d="M619.87,1358.8c122.82,7.98,256.01,98.85,288.71,199.36C816.02,1566.63,643.36,1448.65,619.87,1358.8z"/>
	<path fill="#6e6e6e" d="M539.71,155.05c13.67,121.75-74.8,262.86-181.29,292.48C351.49,369.02,455.67,199.35,539.71,155.05z"/>
	<path fill="#6e6e6e" d="M1582.46,468.19c-112.71-44.66-196.82-192.89-169.72-294.46C1489.99,207.09,1584.52,372.93,1582.46,468.19z"/>
	<path fill="#6e6e6e" d="M1737.46,1212.11c-26.86,92.98-188.07,194.49-282.84,180.14C1478.2,1307.27,1621.24,1215.38,1737.46,1212.11z"/>
	<path fill="#6e6e6e" d="M183.8,1190.9c107.54-3.48,262.88,104.05,273.77,187.69C340.9,1371.87,215.08,1286.39,183.8,1190.9z"/>
	<path fill="#6e6e6e" d="M1652.01,659.09c-86.43-1.98-222.47-141.81-230.47-236.9C1518.32,435.87,1653.37,574.69,1652.01,659.09z"/>
	<path fill="#6e6e6e" d="M522.2,406.59c-18.15,101.07-131.76,212.09-238.09,235.06C274.74,564.52,413.58,426.21,522.2,406.59z"/>
	<path fill="#6e6e6e" d="M174.74,383.67c78.13,77.04,105.81,222.64,61.73,316.26C179.07,664.96,121.16,500.13,174.74,383.67z"/>
	<path fill="#6e6e6e" d="M1626.02,918.84c42.49,93.47,17.93,235.28-65.71,317.99C1516.01,1154.39,1549.7,987.02,1626.02,918.84z"/>
	<path fill="#6e6e6e" d="M1877,591.59c25.63,89.34-60.37,236.92-155.84,277.26C1701.53,780.63,1784.63,632.78,1877,591.59z"/>
	<path fill="#6e6e6e" d="M359.43,1218.64c-76.29-74.61-103.25-240.14-58.4-317.87C381.55,970.92,404.63,1145.9,359.43,1218.64z"/>
	<path fill="#6e6e6e" d="M1698.09,724.05c-42.64-74.58-10.53-245.29,69.09-312.27C1818.51,499.24,1771.56,652.37,1698.09,724.05z"/>
	<path fill="#6e6e6e" d="M1682.24,1066.4c-2-115.18,116.97-241.34,193.3-260.61C1890.46,874.37,1792.6,1028.14,1682.24,1066.4z"/>
	<path fill="#6e6e6e" d="M1621.99,1199.1c25.44-91.76,174.72-199.09,260.09-189.15C1858.52,1100.79,1727.95,1203.24,1621.99,1199.1z"/>
	<path fill="#6e6e6e" d="M313.38,208.61c55.85,83.38,45.69,243.07-19.07,321.73C247.77,489.59,238.4,282.11,313.38,208.61z"/>
	<path fill="#6e6e6e" d="M56.32,776.82c94.92,31.29,194.6,173.13,186.1,262.04C155.49,1025.74,57.94,889.54,56.32,776.82z"/>
	<path fill="#6e6e6e" d="M212.76,844.66C110.75,793.82,40.49,666.57,56.41,563.09C139.54,591.53,220.66,736.04,212.76,844.66z"/>
	<path fill="#6e6e6e" d="M1645.93,548.07c-64.63-72.58-70.04-239.03-11.73-316.06C1698.88,294.85,1704.98,459.38,1645.93,548.07z"/>
	<path fill="#6e6e6e" d="M43.17,982.29c97.65-0.53,230.42,98.46,255.26,195.3C213.28,1186.88,68.66,1076.24,43.17,982.29z"/>
	<path fill="#6e6e6e" d="M370.28,632.04c23.43,86.28-43.32,234.8-124.7,277.47C205.5,837.73,289.75,650.27,370.28,632.04z"/>
	<path fill="#6e6e6e" d="M1685.19,931.48c-87.24-48.37-139.88-175.84-118.53-282.28C1642.34,671.83,1704.5,818.22,1685.19,931.48z"/>
	<path fill="#6e6e6e" d="M1174.42,1199.31c21.38,1.25,34.91,2.04,59.94,3.5c-14.62,13.89-22.63,28.2-31.25,28.57
		c-49.59,2.18-99.33,1.06-154.52,1.06c35.35-40.06,67.43-77.92,101.61-113.8c6.52-6.84,21.21-7.55,32.27-8.08
		c24.02-1.15,48.13-0.35,73.41-0.35c-4.25,36.63-37.6,16.61-56.62,33.69c22.47,0,40.63,0,58.74,0
		C1263.41,1209.9,1207.41,1178.09,1174.42,1199.31z"/>
	<path fill="#6e6e6e" d="M933.63,1239.18c-48.86,0-97.82,1.88-146.55-0.69c-30.61-1.61-60.18-37.45-57.1-63.92c0.5-4.26,7.74-10.15,12.61-10.99
		c9.94-1.72,20.39-0.51,26.89-0.51c-10.01-7.9-20.93-16.51-31.86-25.13c14.97-4.33,31.51-14.89,44.55-11.6
		c22.79,5.76,44.17,18.81,64.78,31.08c21.84,13,42.57,28.03,62.86,43.38c10.92,8.26,19.93,19.06,29.8,28.72
		C937.63,1232.73,935.63,1235.96,933.63,1239.18z"/>
	<path fill="#6e6e6e" d="M778.49,695.9c30.85-61.49,94.09-102.44,146.14-95.53c0,74.28,0,149.33,0,229.46c-30.11-13.81-59.08-27.09-95.19-43.65
		c22.35-16.36,39.62-25.44,51.82-39.06c9.98-11.15,22.56-31.72,18.33-40.88c-5.26-11.39-26.48-20.86-41.07-21.26
		C833.63,684.31,808.52,691.34,778.49,695.9z"/>
	<path fill="#6e6e6e" d="M735.02,917.74c9.96,30.71,35.13,34.42,61.75,33.44c26.61-0.98,46.68,8.26,54.28,34.4c2.58,8.85,0.01,22.09-5.48,29.32
		c-3.35,4.41-17.36,3.29-25.55,0.99c-37.74-10.59-75.96-20.37-112.22-34.9c-14.74-5.91-34.8-22.68-35.39-35.31
		c-1.99-42.1,3.75-84.56,6.53-126.88c5.78-0.77,11.56-1.54,17.34-2.31c10.93,29.86,21.86,59.71,32.79,89.57
		C731.05,909.95,733.03,913.85,735.02,917.74z"/>
	<path fill="#6e6e6e" d="M687.12,990.8c33.84,7.91,61.17,13.49,88,20.89c15.32,4.23,29.38,13.78,44.81,16.72c21.41,4.08,29.35,14.96,25.24,35.33
		c-3.66,18.13-6.52,50.79-12.73,51.52c-25.42,2.98-52-3.73-78.12-7.14c-1.76-0.23-3.79-2.34-4.77-4.09
		C730.28,1069.29,711.15,1034.46,687.12,990.8z"/>
	<path fill="#6e6e6e" d="M1343.72,908.04c-18.46,54.14-36.45,108.45-55.96,162.21c-2.45,6.74-12.63,14.59-19.67,15.04
		c-27.36,1.75-54.89,0.71-90.21,0.71c56.24-63.97,108.27-123.14,160.29-182.32C1340.02,905.14,1341.87,906.59,1343.72,908.04z"/>
	<path class="st0" fill="#6e6e6e" d="M1097.13,954.33c-10.09-26.92-18.51-49.38-28.24-75.36c52.38-11.34,101.41-21.96,150.44-32.58
		c1.22,2.53,2.44,5.06,3.67,7.58C1182.62,886.16,1142.24,918.36,1097.13,954.33z"/>
	<path fill="#6e6e6e" d="M901.47,1140.73c62.47,0,123.74,0,195.37,0c-26.36,28.99-46.02,50.61-69.28,76.18c-3.24-18.04-5.68-31.69-8.5-47.4
		C977.58,1167.68,934.24,1174.93,901.47,1140.73z"/>
	<path fill="#6e6e6e" d="M735.02,917.74c-1.99-3.89-3.97-7.79-5.96-11.68c0.57-12.68-0.39-25.71,2.39-37.88c1.26-5.49,9.91-12.71,15.3-12.79
		c4.53-0.07,11.54,8.34,13.42,14.28c13.4,42.29,27.63,46.85,68.68,14.59c2.96,12.7,9.47,24.16,6.43,31.83
		c-3.61,9.09-14.4,18.86-23.93,21.42C783.09,945.08,756.81,938.48,735.02,917.74z"/>
</g>
<polyline fill="#6e6e6e"  points="1176.42,1199.31 1238.96,1199.31 1210.41,1232.74 1139.17,1232.73 "/>
<polyline fill="#6e6e6e" points="1199.27,1143.91 1269.04,1143.91 1246.31,1192.65 1191.36,1192.65 "/>
</svg>
