<?xml version="1.0" encoding="utf-8"?>
<!-- Generator: Adobe Illustrator 22.0.1, SVG Export Plug-In . SVG Version: 6.00 Build 0)  -->
<svg version="1.1" id="logo" xmlns="http://www.w3.org/2000/svg" xmlns:xlink="http://www.w3.org/1999/xlink" x="0px" y="0px"
	 viewBox="0 0 3042 1854" style="enable-background:new 0 0 3042 1854;" xml:space="preserve">
<style type="text/css">
	.st0{fill:#EB3628;}
	.st1{fill:#A2A1A5;}
	.st2{fill:#FFFEFE;}
</style>
<g>
	<path class="st0" d="M1542.5,93.4c74.8,0,149.6,0.2,224.4-0.2c15.1-0.1,25.8,6,33.9,17.9c12.9,19.1,16.6,40.6,15.3,63.1
		c-0.7,11.4-3,22.5-7.4,33.1c-3.6,8.7-8.4,16.6-15.3,23.1c-6.3,5.9-13.7,9.1-22.4,9.2c-3.1,0-6.2,0-9.3,0
		c-144.8,0-289.6,0.3-434.4-0.3c-21.5-0.1-34.7,9.1-42.8,27.4c-14,31.9-12.5,63.8,2.8,94.8c7.6,15.5,19.9,22.9,38.2,22.8
		c145.5-0.4,291,0.1,436.5-0.6c23.3-0.1,37.2,10.2,45.6,29.9c12.1,28.3,11.8,57-0.1,85.4c-3.1,7.4-7.5,13.9-13.4,19.5
		c-6.5,6.1-14,9.9-23.2,9.6c-3.4-0.1-6.9,0-10.3,0c-145.2,0-290.3,0.2-435.5-0.2c-17.9-0.1-29.9,7.3-37.5,22.3
		c-15.7,31.3-17,63.4-3.1,95.8c3,7,7.4,13.2,13.2,18.4c6.1,5.5,13.1,8.7,21.5,8.5c3.4-0.1,6.9,0,10.3,0c145.2,0,290.3,0.2,435.5-0.2
		c17.7-0.1,29.6,7.3,38.1,21.7c10.9,18.4,14.3,38.6,12.9,59.7c-0.9,12.8-3.6,25.2-9.2,36.9c-3.6,7.5-8.1,14.4-14.5,19.9
		c-6.2,5.4-13.3,8.5-21.6,8.4c-2.1,0-4.1,0-6.2,0c-146.9,0-293.8-0.2-440.6,0.2c-27.5,0.1-50.3-9.7-69.9-28.2
		c-22.3-21.1-36.8-47.1-47.4-75.5c-18.5-49.7-23.1-101.1-17.3-153.6c3.8-35.2,12.7-69,29-100.7c2.5-4.9,0.6-8.3-1.2-12.4
		c-38.8-86.4-40.5-173.9-6.5-262.1c8.9-23,21.8-43.8,39.2-61.5c15.3-15.6,32.9-27.1,54.8-31.1c5.1-0.9,10.3-0.9,15.4-0.9
		C1394.2,93.4,1468.3,93.4,1542.5,93.4z"/>
	<path class="st1" d="M2524.4,717.3c15.4,10.4,30.5,20.6,45.6,30.8c68,45.8,136,91.6,204,137.4c42.3,28.5,84.5,57.1,126.7,85.7
		c2.6,1.7,5.1,3.5,7.4,5.6c3.2,2.8,3.7,6.6,2.4,10.4c-1.3,3.9-4.2,6.2-8.5,6.4c-2.4,0.1-4.8,0.1-7.2,0.1
		c-69.6,0-139.3-0.1-208.9,0.1c-6.8,0-12.6-1.4-18.3-5.4c-76.7-53.8-153.5-107.5-230.3-161.2c-9.9-6.9-20.1-13.4-29.6-20.7
		c-5-3.8-8.8-3.7-13.7-0.2c-17.4,12.4-35.1,24.4-52.6,36.6c-32.5,22.6-65.1,45.2-97.6,67.8c-37.1,25.7-74.3,51.2-111.3,77.1
		c-5.9,4.1-11.8,6.1-19.1,6.1c-70.7-0.2-141.3-0.1-212-0.1c-2.8,0-5.6,0.2-8.3-0.2c-7.8-1.3-10.9-9.4-6.2-15.8
		c2.3-3.1,5.5-5.1,8.7-7.2c55.6-37.1,111.1-74.3,166.6-111.5c66.7-44.7,133.4-89.4,200-134.1c3.7-2.5,7.3-5.2,10.9-7.8
		c-1-4.2-4.7-5.2-7.4-7c-56.7-38.5-113.5-76.8-170.3-115.3c-57.1-38.6-114.1-77.2-171.1-115.9c-3.6-2.4-8-4.2-8.8-9.5
		c-1.2-7.8,2.2-12.6,10.2-13.6c2.4-0.3,4.8-0.1,7.2-0.1c67.9,0,135.8,0.1,203.7-0.1c7.2,0,13.3,1.6,19.2,5.8
		c78.7,54.6,157.5,109,236.2,163.5c8.4,5.8,8.4,6,17.1,0c66.4-46.2,132.8-92.5,199.3-138.8c12.4-8.7,25-17.1,37.4-25.9
		c4.8-3.4,9.7-4.6,15.4-4.6c68.6,0.1,137.2,0.1,205.8,0.1c3.1,0,6.2-0.2,9.2,0.9c8.5,3.2,10.5,11.7,4,18c-2,1.9-4.4,3.3-6.7,4.8
		c-68.5,46.3-137.1,92.5-205.6,138.7c-45.7,30.8-91.4,61.6-137,92.5C2529.1,712.3,2526.4,713.4,2524.4,717.3z"/>
	<path class="st1" d="M592.6,993.7c-28.3,0-56.5-0.3-84.8,0.2c-7.7,0.1-12.9-2.5-17.7-8.3c-20.4-25.2-41-50.1-61.6-75.1
		c-27.4-33.2-54.7-66.5-82.1-99.7c-27.1-33-54.3-66-81.4-98.9c-27.4-33.2-54.7-66.5-82.1-99.7c-27.1-33-54.3-66-81.4-99
		c-10.3-12.5-20.4-25.1-30.8-37.5c-3.3-4-5.7-8.1-3.3-13.1c2.5-5.3,7.4-6.8,12.9-6.8c20.7,0,41.4,0,62.1,0
		c36.9,0,73.8,0.2,110.7-0.2c9.2-0.1,15.6,3,21.2,10.1c34.6,43.4,69.4,86.5,104.1,129.8c30.2,37.6,60.4,75.2,90.6,112.8
		c36.8,46,73.6,91.9,110.5,137.9c2.6,3.2,5.2,6.4,7.8,9.6c5.1,6.2,5.5,6.3,10.5,0.2c13.3-16.2,26.5-32.6,39.8-48.9
		c29.6-36.3,59.3-72.5,89-108.8c22.2-27.2,44.5-54.4,66.7-81.6c26.6-32.5,53.1-65.1,79.6-97.7c14.4-17.6,28.9-35.1,43-53
		c5.8-7.3,12.4-10.6,22-10.5c56.2,0.4,112.4,0.2,168.6,0.2c0.7,0,1.4,0.1,2.1,0c5.9-0.5,11.4,0.6,14.2,6.2
		c3.1,6.2-0.2,11.1-4.2,15.9c-44.6,53.4-89.1,106.9-133.7,160.3c-47.3,56.6-94.7,113-141.9,169.6c-47.2,56.6-94.4,113.2-141.5,169.9
		c-13.4,16.2-13.4,16.2-34.4,16.2C642.3,993.7,617.4,993.7,592.6,993.7z"/>
	<path class="st0" d="M947.9,1563.4c-4.4,3.9-5.7,7.5-7.5,10.6c-23.4,41.8-46.9,83.5-69.9,125.4c-3.3,5.9-6.8,8.4-13.6,8
		c-10-0.7-20-0.6-30,0c-6.1,0.3-9.1-2.1-11.9-7.3c-23.3-42.2-46.9-84.2-70.5-126.3c-1.7-3-2.8-6.3-5.7-8.7c-2.8,2-1.5,5-1.5,7.4
		c-0.1,41-0.1,82-0.1,123c0,2.4-0.1,4.8,0,7.2c0.1,2.9-1,4.4-4.2,4.4c-17.6-0.1-35.2,0-52.7,0c-2.6,0-3.7-1.3-3.7-3.8
		c0-2.1,0-4.1,0-6.2c0-61,0-122,0-183c0-1,0.1-2.1,0-3.1c-0.7-5.2,1.2-7.2,6.8-7.1c14.8,0.4,29.6,0.1,44.5,0.1
		c11.7,0,23.5,0.5,35.1-0.2c7.4-0.5,10.9,2.6,14.2,8.8c19.6,37.1,39.7,74.1,59.6,111c1.6,3,3.4,5.8,5.5,9.5c3.4-3,4.6-6.6,6.3-9.8
		c20-37,40.1-73.8,59.6-111c3.4-6.6,7.3-8.5,14.4-8.4c26.2,0.4,52.4,0.1,78.6,0.2c7.2,0,7.4,0.2,7.4,7.4c0,62.7,0,125.4,0,188.2
		c0,7.3-0.2,7.4-7.3,7.5c-15.2,0.1-30.3,0.1-45.5,0c-7.5,0-7.6-0.2-7.6-8.2c0-38.9,0-77.9,0-116.8
		C947.9,1576.6,947.9,1571.1,947.9,1563.4z"/>
	<path class="st0" d="M497.5,1709.3c-20.7,0-41.3,0-62,0c-9.3,0-18.6-1.2-27.6-3.3c-31.1-7.2-47.3-25-49.2-56.7
		c-1.7-28.9-1.7-57.9,0-86.8c2-33.4,20.7-52.5,53.9-58.1c10.9-1.8,21.9-2.4,32.9-2.4c37.2,0,74.4,0.1,111.6,0.2
		c11.8,0,23.4,1.4,34.7,4.5c25.6,6.9,40.4,24.1,43.6,50.4c1,7.9,1.6,15.7,1.4,23.7c-0.6,23.1,1.2,46.2-1,69.2
		c-3.2,33.3-20.7,51.6-53.7,57.1c-11.6,1.9-23.3,2.4-35,2.4c-16.5,0-33.1,0-49.6,0C497.5,1709.4,497.5,1709.3,497.5,1709.3z
		 M497.2,1657.3c13.4,0,26.8,0,40.3,0c4.8,0,9.6-0.5,14.3-1.5c11.2-2.3,17.7-9.3,19.3-20.1c2.9-19.1,3-38.4,0-57.6
		c-1.8-11.6-9.1-19-20.6-21.9c-6-1.5-12.2-2-18.4-2c-23.1,0.1-46.1,0-69.2,0c-4.8,0-9.6,0.1-14.4,1.1c-16.7,3.4-24.6,11.4-25.9,28.6
		c-1.2,15.4-1.3,31,0.1,46.4c1.5,17.5,9.4,25,26.9,26.8c3.1,0.3,6.2,0.3,9.3,0.3C471.7,1657.3,484.5,1657.3,497.2,1657.3z"/>
	<path class="st0" d="M2461.8,1709.1c-21.7,0-43.4,0.1-65.1,0c-9.3,0-18.5-1.6-27.5-3.9c-27.2-7-43-24.3-45.2-52.2
		c-2.5-31.3-2.5-62.7,0-94c2.4-30.6,21.1-49,52.9-54.5c11.2-1.9,22.6-2.5,34-2.5c36.9,0,73.7,0.1,110.6,0.1c8.6,0,17.2,1,25.7,2.4
		c34,5.6,52.6,25.7,53.8,60.2c0.9,27.2,0.2,54.4,0.2,81.6c0,0.3,0,0.7-0.1,1c-2.1,33.8-20.2,53.9-53.6,59.6c-11.9,2-24,2.5-36,2.5
		c-16.5,0-33.1,0-49.6,0C2461.8,1709.4,2461.8,1709.2,2461.8,1709.1z M2462,1657.3c12.7,0,25.5,0,38.2,0c0.3,0,0.7,0,1,0
		c3.8-0.2,7.6-0.1,11.3-0.7c15.4-2.5,22.6-9.6,23.9-25.1c1.3-16.5,1.4-33,0-49.5c-1.3-15.4-9.1-23.2-24.4-26.5
		c-4.8-1-9.5-1.3-14.3-1.3c-23.7,0-47.5,0-71.2,0c-4.5,0-8.9,0.2-13.3,1.1c-16.8,3.4-24.1,11.5-25.7,28.7
		c-1.4,15.5-1.3,30.9,0.1,46.4c1.5,16.6,8.6,24.1,24.9,26.4c3.4,0.5,6.9,0.5,10.3,0.5C2435.9,1657.3,2448.9,1657.3,2462,1657.3z"/>
	<path class="st0" d="M2855.2,1650c0-4.6,0-7.9,0-11.1c0-41,0-82,0-123c0-2.4,0.1-4.8,0-7.2c-0.1-2.9,1.1-4.4,4.2-4.4
		c17.9,0,35.8,0,53.8,0c3.1,0,4.3,1.5,4.2,4.4c-0.1,2.1,0,4.1,0,6.2c0,60.6,0,121.3,0,181.9c0,2.1-0.1,4.1,0,6.2
		c0.1,3.1-1.5,4.3-4.4,4.2c-5.9,0-11.7,0-17.6,0c-22.1,0-44.1-0.2-66.2,0.1c-6.1,0.1-10-1.8-13.8-6.7
		c-34.2-43.6-68.8-87-103.2-130.5c-2.1-2.6-4.3-5.1-7.1-8.4c-2.2,3.9-1.4,7.3-1.4,10.5c-0.1,41,0,82,0,123c0,2.4-0.1,4.8,0,7.2
		c0.1,3.6-1.7,4.8-5.1,4.7c-8.6-0.1-17.2,0-25.8,0c-8.6,0-17.2-0.1-25.8,0c-3.8,0.1-5.9-1.1-5.6-5.2c0.1-2.1,0-4.1,0-6.2
		c0-60,0-119.9,0-179.9c0-1.4,0-2.8,0-4.1c0.2-7.5,0.2-7.6,7.2-7.6c27.6-0.1,55.1,0.2,82.7-0.2c5.8-0.1,8.6,2.6,11.8,6.6
		c34.2,43.3,68.4,86.5,102.7,129.6C2848.1,1643.3,2850.1,1646.9,2855.2,1650z"/>
	<path class="st0" d="M1444.4,1707.2c-34.8,0-69.6,0-104.4,0c-8,0-8.2-0.1-8.2-7.7c0-62.4,0-124.8,0-187.2c0-7.9,0.2-8.1,7.8-8.1
		c68.9,0,137.9,0,206.8,0c7.3,0,7.4,0.2,7.4,7.4c0.1,11-0.2,22.1,0.1,33.1c0.2,5.6-2,7-7.2,6.9c-23.1-0.2-46.2-0.1-69.3-0.1
		c-25.2,0-50.3,0-75.5,0c-7.4,0-7.4,0.1-7.5,7.2c-0.1,6.2,0.3,12.4-0.1,18.6c-0.3,5.3,1.9,6.3,6.6,6.3c17.9-0.2,35.8-0.1,53.8-0.1
		c27.6,0,55.2,0,82.7,0c7.9,0,8,0.2,8.1,7.9c0.1,9,0.1,17.9,0,26.9c-0.1,7.6-0.2,7.7-8.2,7.7c-31,0.1-62,0-93.1,0
		c-14.5,0-29,0.2-43.4-0.1c-5-0.1-6.7,1.4-6.5,6.4c0.4,6.9,0.2,13.8,0.1,20.7c-0.1,3.5,1.2,5.1,4.8,4.9c2.4-0.1,4.8,0,7.2,0
		c46.2,0,92.4,0,138.6,0c2.4,0,4.8,0.1,7.2,0c4.1-0.2,5.4,1.8,5.3,5.7c-0.1,12.4-0.3,24.8,0.1,37.2c0.1,5.2-2,6.4-6.7,6.4
		c-21-0.2-42.1-0.1-63.1-0.1C1473.3,1707.2,1458.8,1707.2,1444.4,1707.2z"/>
	<path class="st0" d="M195.5,1709.1c-21.4,0-42.7,0-64.1,0c-8,0-15.8-1.3-23.5-3.1c-31.1-7.2-47.2-24.8-49.2-56.7
		c-1.8-28.9-1.7-57.9,0-86.8c1.8-31.9,17.9-49.6,48.9-56.9c13.5-3.2,27.3-3.6,41.1-3.6c28.3,0,56.5,0.1,84.8,0.2
		c17.3,0.1,34.4,1.5,51.1,6.4c18.6,5.4,30.1,17.5,33.4,36.7c1.6,9.2,2.3,18.4,2.3,27.8c0,3.8-1.2,5.7-5.3,5.6
		c-17.2-0.1-34.5-0.1-51.7,0c-4.1,0-5-1.8-5.6-5.4c-2.1-12.9-5.5-17.4-18.3-18.2c-29.9-1.7-60-2.4-89.8,0.3
		c-17.9,1.6-25.9,11.5-27.1,29.6c-1,14.8-1.1,29.7,0.1,44.4c1.5,18.6,9.7,27.1,28.3,27.6c28.6,0.7,57.2,0.1,85.8,0.1
		c1.4,0,2.7-0.3,4.1-0.5c13.2-2.2,16.7-5.8,19.1-19.2c1.4-8.1,1.4-8.2,9.2-8.2c15.5,0,31,0.1,46.5-0.1c5.2-0.1,7.5,1.3,7.2,6.9
		c-0.4,10.3,0.2,20.6-1.8,30.9c-3.4,17.3-13,29.4-29.3,35.9c-10.3,4.1-21.2,6-32.3,6.4c-2.8,0.1-5.5,0.3-8.3,0.3
		c-18.6,0-37.2,0-55.8,0C195.5,1709.3,195.5,1709.2,195.5,1709.1z"/>
	<path class="st0" d="M1052.8,1605.7c0-31,0-62,0-93.1c0-8.4,0.1-8.5,8.4-8.5c54.5,0,108.9,0,163.4,0c9.7,0,19.2,1.1,28.6,3.6
		c22.6,5.9,36.5,20.1,40.4,43.2c3.5,20.5,3.9,41.2-0.3,61.6c-5.6,26.9-23,42.1-50.5,43.2c-23.1,1-46.2,0.4-69.3,0.5
		c-14.8,0-29.6-0.1-44.5,0c-16.2,0.1-13.7-2-13.9,13.4c-0.1,10.3-0.2,20.7,0.1,31c0.1,4.9-1.5,6.6-6.5,6.6
		c-16.5-0.2-33.1-0.3-49.6,0c-5,0.1-6.5-1.5-6.5-6.5c0.2-20.7,0.1-41.4,0.1-62C1052.8,1627.8,1052.8,1616.7,1052.8,1605.7z
		 M1167.4,1605.7c14.5,0,29,0,43.4,0c5.7,0,11-1.2,15.2-5.3c7.5-7.3,8.2-30.9,1.1-38.8c-2.6-2.9-5.9-4.8-9.7-5.5
		c-3.4-0.7-6.8-1.5-10.2-1.5c-28.6-0.1-57.2,0-85.8-0.2c-4.3,0-6.2,1.2-6.2,5.8c0.2,13.1,0.3,26.2,0,39.3c-0.1,5.3,2,6.3,6.7,6.2
		C1137,1605.6,1152.2,1605.7,1167.4,1605.7z"/>
	<path class="st0" d="M2066.1,1504.2c36.5,0,73.1,0,109.6,0c9,0,9,0.1,9,9c0.1,10.7,0,21.4,0,32.1c0,9.4,0.8,9.3-9.8,9.3
		c-22.7,0-45.5,0-68.2,0c-9.5,0-9.6,0.1-9.6,9.7c0,43.4,0,86.8,0,130.3c0,2.4-0.2,4.8,0,7.2c0.3,3.9-1.2,5.6-5.3,5.6
		c-17.2-0.1-34.5-0.1-51.7,0c-3.9,0-5.6-1.5-5.5-5.5c0.2-4.5,0-9,0-13.4c0-40.3,0-80.6,0-121c0-2.4-0.1-4.8,0-7.2
		c0.2-3.8-1.2-5.9-5.3-5.6c-2.4,0.2-4.8,0-7.2,0c-22.4,0-44.8,0.1-67.2,0c-7.4,0-7.5-0.2-7.6-7.3c-0.1-11.7-0.1-23.4,0-35.2
		c0.1-7.7,0.2-7.8,8.1-7.8c32.4-0.1,64.8,0,97.2,0C2057.1,1504.2,2061.6,1504.2,2066.1,1504.2z"/>
	<path class="st0" d="M1701.3,1504.2c36.5,0,73.1,0,109.6,0c8.4,0,8.5,0.1,8.5,8.3c0.1,11.7-0.2,23.4,0.1,35.1
		c0.2,5.5-1.8,7-7.1,6.9c-23.1-0.2-46.2-0.1-69.3-0.1c-2.4,0-4.8,0-7.2,0.1c-2.5,0.1-3.7,1.4-3.8,3.9c0,2.8-0.1,5.5-0.1,8.3
		c0,42.7,0,85.5,0,128.2c0,2.4-0.1,4.8,0,7.2c0.2,3.3-0.9,5.1-4.6,5.1c-17.6-0.1-35.2-0.2-52.7,0c-5.4,0.1-5-3.3-5-6.8
		c0-20.7,0-41.4,0-62c0-25.2,0-50.3,0-75.5c0-8.3-0.1-8.4-8.6-8.4c-23.4-0.1-46.9,0-70.3,0c-8.2,0-8.3-0.1-8.4-8.5
		c-0.1-11,0-22.1,0-33.1c0-9.7-0.1-8.7,9.2-8.7C1628.2,1504.2,1664.7,1504.2,1701.3,1504.2z"/>
	<path class="st1" d="M1080.2,1230.4c4.3,1.2,6.9,2,9.5,2.7c16.1,4.3,24.7,14.3,25.5,30.9c0.5,11,0.5,22.1,0,33.1
		c-0.6,14.4-12.6,28-28.9,32.9c-9.2,2.8-18.8,4.3-28.5,4.3c-51.7,0-103.4,0-155.1,0c-1.7,0-3.4-0.1-5.2,0c-3.7,0.1-5.9-1.4-5.8-5.4
		c0.1-2.1,0-4.1,0-6.2c0-56.9,0-113.8,0-170.7c0-1.7,0.1-3.5,0-5.2c-0.4-4.8,1.5-7,6.5-6.8c4.8,0.2,9.7,0,14.5,0
		c47.9,0,95.8,0.1,143.8,0c9,0,17.8,1,26.4,4.1c15.1,5.4,24,17.5,24.5,33.5c0.2,6.2,0.1,12.4,0.1,18.6
		C1107.4,1216.7,1102,1224,1080.2,1230.4z M995.4,1245.4c-22.7,0-45.5,0-68.2,0c-9.9,0-10,0.1-10,9.4c-0.1,16.2-0.1,32.4,0,48.6
		c0.1,8.5,0.2,8.6,8.7,8.7c44.8,0,89.6,0,134.4,0c4.9,0,9.6-0.8,14.2-2.5c8.9-3.4,14.1-9.6,14.3-19.4c0.1-7.2,0.2-14.5,0-21.7
		c-0.4-12.6-7.4-20.6-19.9-22.5c-4.4-0.7-8.9-0.6-13.4-0.6C1035.4,1245.3,1015.4,1245.4,995.4,1245.4z M990.8,1223.1
		c19.6,0,39.3-0.3,58.9,0.1c25.7,0.5,32.8-10.3,32.5-32.8c-0.3-24.2-10.6-26-25.9-29c-1.3-0.3-2.7-0.2-4.1-0.2c-42,0-84.1,0-126.1,0
		c-8.4,0-8.9,0.6-9,8.7c-0.1,14.8-0.1,29.6,0,44.4c0.1,8.5,0.2,8.7,8.6,8.7C947.4,1223.2,969.1,1223.1,990.8,1223.1z"/>
	<path class="st1" d="M2807.9,1138.3c15.9,0,31.7-0.3,47.6,0.1c11.7,0.3,23.4,2.2,34.4,6.4c22.6,8.6,27.9,24.9,27.4,46.9
		c-0.1,3-1.8,4.2-4.6,4.2c-1.4,0-2.8,0.1-4.1,0c-4.8-0.3-10.2,1.6-14.1-1.1c-3.9-2.7-2.2-8.3-2.8-12.6c-1.7-11.3-8.5-16.7-18.7-19.3
		c-13.5-3.3-27.4-2.9-41-3.6c-16.5-0.9-33.1-0.7-49.6-0.1c-11.3,0.4-22.7,0.5-33.8,3.1c-18.8,4.3-25.9,14.1-24.4,33.5
		c0.1,1,0.5,2,0.6,3c1.9,15.7,7.9,22.2,23.1,24.1c9.2,1.1,18.4,2.1,27.8,2c29.6-0.2,59.3,0,88.9,0.1c10.8,0.1,21.2,2.4,31.2,6.2
		c16.7,6.3,25.8,19.1,26.2,37.1c0.1,7.2,0.1,14.5,0,21.7c-0.5,20-10.5,33.7-29.4,40.4c-12.5,4.4-25.6,5.6-38.6,5.8
		c-29.3,0.5-58.6,0.4-87.9,0c-11.7-0.2-23.3-1.6-34.6-4.8c-16.5-4.6-30.9-18.2-31.2-37.9c-0.1-5.1-1.5-10.2-1.2-15.4
		c0.2-3.8,1.6-5.7,5.6-5.6c4.8,0.1,9.7,0.2,14.5,0c4.6-0.2,6.1,2.1,5.9,6.3c-0.1,3.4,0,6.9,0.1,10.3c0.6,11.6,6.6,19.3,17.8,22.4
		c5.3,1.5,10.7,2.4,16.3,2.4c33.4-0.1,66.9-0.1,100.3,0c5.6,0,11-1,16.3-2.3c11.5-2.8,18.7-9.9,20.8-21.7c1.3-7.2,1.3-14.5,0.1-21.6
		c-1.7-10.4-8.4-16.5-18.6-18.2c-7.4-1.2-14.9-2.4-22.6-2.3c-30,0.1-60,0.2-90-0.4c-14.1-0.3-28.1-2-41.4-7.3
		c-11.9-4.7-19-13.2-22.3-25.3c-3.8-14.2-3.9-28.6-0.3-42.9c4.1-16,15.7-24.8,30.6-29.3c9.5-2.9,19.4-4.5,29.5-4.5
		C2776.8,1138.2,2792.4,1138.3,2807.9,1138.3C2807.9,1138.3,2807.9,1138.3,2807.9,1138.3z"/>
	<path class="st1" d="M586.1,1138.1c20,0,40,0,60,0c6.2,0,12.3,0.7,18.5,1.6c27.5,4.1,42.4,23.4,45.4,51.1
		c2.6,24.7,1.7,49.6,1.4,74.3c-0.1,9.9-0.9,19.9-3.4,29.6c-6.2,23.4-19.7,35.4-44.8,39.7c-10.2,1.7-20.5,2-30.9,2
		c-33.8-0.2-67.6-0.1-101.3,0c-10.4,0-20.6-1.4-30.6-4c-18.1-4.8-29.8-16.2-34.8-34.5c-2.4-8.7-3.9-17.4-3.9-26.4
		c0.1-24.5-0.1-48.9,0.2-73.4c0.1-11.5,2.7-22.5,8-32.8c5.3-10.3,13.3-17.4,24.1-21.5c9.1-3.4,18.4-5.7,28.2-5.6
		C543.4,1138.2,564.8,1138.2,586.1,1138.1C586.1,1138.1,586.1,1138.1,586.1,1138.1z M585,1314.1c19.7,0,39.3,0,59,0
		c0.7,0,1.4,0,2.1,0c17.3-1.1,35-7.2,38.1-32.9c0.5-3.8,0.7-7.5,0.7-11.3c0-21.4-0.1-42.8,0.1-64.1c0.1-6.6-0.8-13.1-2.2-19.5
		c-2.2-10.3-8-18.1-18-22.4c-9.1-3.9-18.7-4.6-28.3-4.7c-33.8-0.2-67.6,0-101.4-0.1c-7,0-13.8,1-20.5,2.4
		c-15.4,3.3-25.8,15-26.1,30.6c-0.6,30-0.5,60,0,90c0.3,15.1,9.8,25.9,24.3,29.9c5.3,1.5,10.7,2.3,16.3,2.3
		C547.8,1314.1,566.4,1314.1,585,1314.1z"/>
	<path class="st1" d="M1416.5,1138.1c19.6,0,39.3-0.1,58.9,0c6.2,0,12.3,0.6,18.5,1.5c27.8,4.2,42.7,23.4,45.6,50.9
		c2.6,24.4,1.9,48.9,1.4,73.3c-0.2,9.5-1.1,19.2-3.1,28.7c-5.8,28-23.4,38.2-44.9,42c-9.8,1.7-19.8,2.1-29.8,2
		c-34.5-0.2-68.9-0.1-103.4-0.1c-10.4,0-20.6-1.6-30.6-4.2c-16.6-4.3-27.6-15-33.2-31.1c-2.7-7.8-4.5-15.9-4.5-24.3
		c-0.1-26.5,0-53.1,0-79.6c0-6.9,1.5-13.7,3.4-20.3c6.8-24,22.2-35.7,52.4-38.7c1.4-0.1,2.8-0.1,4.1-0.1
		C1373,1138.2,1394.7,1138.2,1416.5,1138.1C1416.5,1138.1,1416.5,1138.1,1416.5,1138.1z M1415.6,1314.1
		C1415.6,1314.1,1415.6,1314.1,1415.6,1314.1c20,0,40,0.4,60-0.2c17.6-0.5,35-7.3,38.1-32.8c0.5-3.8,0.7-7.5,0.7-11.3
		c0-21.7-0.1-43.4,0.1-65.2c0.1-6.6-0.9-13.1-2.4-19.4c-2.3-9.5-7.6-16.7-16.8-20.9c-9.4-4.3-19.3-5-29.2-5.1
		c-33.8-0.3-67.6,0-101.4-0.1c-6.9,0-13.8,1-20.5,2.5c-15.4,3.3-25.8,15-26.1,30.6c-0.5,30-0.5,60,0,90c0.3,15.1,9.8,25.9,24.2,29.8
		c5.3,1.5,10.7,2.3,16.3,2.3C1377.7,1314.1,1396.7,1314.1,1415.6,1314.1z"/>
	<path class="st1" d="M257,1248.4c3.5,1.6,6.4,2.7,9.1,4c11.2,5.5,17.4,14.4,17.6,27c0.2,15.8,0,31.7,0.2,47.5
		c0.1,5.1-1.4,7.5-7,7.4c-21.9-0.4-17.4,2.1-17.8-17.1c-0.2-10,0-20-0.1-30c-0.2-19.4-11.5-29.5-29.6-29.5
		c-42.4,0.1-84.7-0.1-127.1-0.1c-8.9,0-9,0.2-9,9.3c-0.1,19.6,0,39.3-0.1,58.9c0,8-0.2,8.3-8,8.2c-22.4-0.2-18.4,3-18.5-18.3
		c-0.2-53.7-0.1-107.5-0.1-161.2c0-2.1,0-4.1,0-6.2c0.2-8.1,0.2-8.1,7.9-8.4c1,0,2.1,0,3.1,0c48.6,0,97.1,0,145.7,0
		c11.7,0,23.3,0.9,34.7,4.1c17.1,4.9,26.1,16.5,27.4,33.6c1.1,13.7,1,27.6,0.2,41.3c-0.7,12.4-7.4,21.1-19.5,25.3
		C263.4,1245.4,259.9,1244.8,257,1248.4z M165.4,1235.5c19.6,0,39.2-0.1,58.9,0c7.3,0,14.4-1.1,21.2-3.8c8.9-3.5,13.8-10,13.9-19.7
		c0.1-8.6,0.2-17.2,0-25.8c-0.3-12.2-5-17.8-16.8-21.6c-8.3-2.7-17.1-3-25.5-3.1c-38.9-0.6-77.8-0.2-116.7-0.4
		c-5.5,0-7.1,2.1-7.1,7.3c0.2,20,0,39.9,0.1,59.9c0,6.9,0.3,7.1,8,7.1C122.7,1235.6,144.1,1235.5,165.4,1235.5z"/>
	<path class="st1" d="M2412.9,1138.2c19.6,0,39.3,0,58.9,0c9.8,0,19,2.6,28,6.2c14.7,6,21.6,17.7,24,32.5c1.1,6.7,0.3,13.8,0.4,20.6
		c0,1.8-0.2,3.9-2.1,4.3c-6.1,1.2-12.4,1.1-18.5,0.1c-2.5-0.4-2.3-3.2-2.3-5.2c0.2-5.2-0.6-10.3-1.7-15.3
		c-2.5-11.4-9.6-18.2-20.9-20.1c-6.7-1.1-13.5-2.3-20.5-2.2c-30,0.2-60,0.1-90,0c-7,0-13.8,1-20.5,2.4
		c-15.4,3.2-25.9,14.8-26.4,30.3c-1,30.3-1.1,60.7,0,91c0.7,17.5,13.2,28.7,32.8,31.1c2.7,0.3,5.5,0.3,8.3,0.3
		c34.1,0,68.2,0,102.4,0c6.2,0,12.4-0.6,18.4-2.2c10.2-2.9,16.7-9.1,18.4-19.9c1-5.8,1.9-11.6,1.6-17.4c-0.2-4.5,1.9-6.1,6.2-6
		c21.7,0.5,18.7-3.3,18.4,18.4c-0.1,5.8-1.1,11.7-2.4,17.3c-3.6,15.4-14.6,23.7-29,27.9c-9.6,2.8-19.6,4-29.5,4.1
		c-35.5,0.2-71,0.2-106.5,0c-10.4,0-20.5-1.8-30.5-4.8c-14.1-4.3-23.8-13.4-29.5-26.9c-3.4-8-5.6-16.4-5.7-25
		c-0.3-28.6-0.7-57.2,0.1-85.8c0.4-15.4,5.2-29.9,17-40.9c11.2-10.4,25.2-14.1,39.9-14.5C2372.3,1137.8,2392.6,1138.2,2412.9,1138.2
		C2412.9,1138.2,2412.9,1138.2,2412.9,1138.2z"/>
	<path class="st0" d="M1852.2,1604.6c0-30.7,0-61.3,0-92c0-8.3,0.1-8.4,8.5-8.4c15.5-0.1,31-0.1,46.5,0c7.2,0,7.3,0.2,7.3,7.5
		c0.1,30.3,0,60.6,0,91c0,32,0,64.1,0,96.1c0,8.3-0.1,8.4-8.4,8.4c-15.5,0.1-31,0.1-46.5,0c-7.2,0-7.4-0.2-7.4-7.5
		C1852.1,1668,1852.2,1636.3,1852.2,1604.6z"/>
	<path class="st0" d="M2217.6,1605.7c0-31,0-62,0-93c0-8.5,0.1-8.5,8.3-8.6c15.5-0.1,31-0.1,46.5,0c7.3,0,7.4,0.2,7.4,7.4
		c0.1,25.1,0,50.3,0,75.4c0,37.2,0,74.4,0,111.6c0,8.4-0.1,8.5-8.4,8.6c-15.5,0.1-31,0.1-46.5,0c-7.2,0-7.3-0.2-7.3-7.4
		C2217.6,1668.4,2217.6,1637.1,2217.6,1605.7z"/>
	<path class="st1" d="M1810.5,1140.1c32.7,0,65.4,0,98.2,0c2.4,0,4.8,0,7.2,0c1,0,2.3-0.2,3,0.3c5.8,3.5,2.3,9.2,3,13.9
		c0.5,3.1,0.2,6.5-4.3,6.7c-2.4,0.1-4.8,0.1-7.2,0.1c-24.8,0-49.6,0-74.4,0c-12.7,0-12.7,0-12.7,12.3c0,48.9,0,97.8,0,146.7
		c0,2.4-0.1,4.8,0,7.2c0.3,4.7-1.5,6.7-6.5,7c-19.1,1.2-19.1,1.4-19.1-18.1c0-46.8,0-93.7,0-140.5c0-2.1,0.1-4.1,0-6.2
		c-0.3-7.8-0.7-8.3-8.3-8.4c-8.6-0.2-17.2,0-25.8,0c-18.9,0-37.9,0.1-56.8,0c-7.4,0-7.4-0.3-7.7-7.6c0-0.7,0-1.4,0-2.1
		c-0.1-11.3-0.1-11.4,11.1-11.4C1743.7,1140.1,1777.1,1140.1,1810.5,1140.1z"/>
	<path class="st1" d="M2112.8,1237c0,29.3,0,58.5,0,87.8c0,9.5-0.1,9.6-9.8,9.6c-17.7-0.1-15.5,1.8-15.6-15.3
		c-0.1-55.1,0-110.2,0-165.2c0-2.8,0.1-5.5,0-8.3c0-3.2,1.2-5.5,4.7-5.3c6.4,0.3,14-2.6,19,1.4c4.2,3.3,1.5,10.4,1.6,15.8
		C2112.9,1183.9,2112.8,1210.5,2112.8,1237z"/>
	<path class="st1" d="M2996.1,965.8c1,16.6-13.2,35.4-35.1,35.5c-18.9,0.1-35.8-14.8-35.5-36.2c0.3-19.6,14.3-35.2,35.2-35.3
		C2984.3,929.6,2997.2,949.2,2996.1,965.8z M2990,965.2c-0.1-16.4-13.8-30-29.6-29.5c-16.4,0.5-28.8,13.8-28.6,30.5
		c0.2,15.9,13.3,28.9,29,29C2976.8,995.2,2990,981.6,2990,965.2z"/>
	<path class="st2" d="M2966.9,968.5c1.7-1.4,2.9-2.1,3.8-3.1c7.3-8.1,5-15.4-5.5-18c-4.7-1.2-9.5-1.2-14.3-1.1
		c-4.2,0-6.2,2.1-6.2,6.3c0.1,6.2,0,12.3,0,18.5c0,3.4,0,6.8,0.2,10.3c0.1,1.9,1,3.3,3,3.4c2.5,0.2,3.9-1.1,4.1-3.5
		c0.2-2.4,0.1-4.8,0.2-7.2c0.1-2-0.1-4.3,2.5-5c2.2-0.6,4,0.4,5.6,1.8c2.3,2.1,4,4.6,5.6,7.3c1.2,2.1,2.4,4.2,4,5.8
		c1.2,1.2,3.2,1.3,4.7,0c1.2-1.1,0.8-2.6,0.1-3.7C2972.2,976.6,2969.8,972.9,2966.9,968.5z"/>
	<path class="st1" d="M2966.9,968.5c2.9,4.4,5.4,8.1,7.7,11.9c0.7,1.1,1.2,2.6-0.1,3.7c-1.5,1.3-3.4,1.3-4.7,0
		c-1.6-1.7-2.9-3.8-4-5.8c-1.5-2.7-3.2-5.3-5.6-7.3c-1.6-1.4-3.4-2.4-5.6-1.8c-2.6,0.7-2.4,3-2.5,5c-0.1,2.4,0,4.8-0.2,7.2
		c-0.2,2.4-1.6,3.7-4.1,3.5c-2-0.2-3-1.5-3-3.4c-0.1-3.4-0.2-6.8-0.2-10.3c0-6.2,0.1-12.3,0-18.5c0-4.3,2-6.3,6.2-6.3
		c4.8,0,9.5-0.1,14.3,1.1c10.5,2.6,12.8,9.9,5.5,18C2969.8,966.4,2968.6,967.1,2966.9,968.5z M2958,963.9c5.8,0,9.2-2.3,9.2-6
		c0-4-3-5.9-9.1-5.8c-5.4,0.1-7.2,1.8-7.1,6.4C2951.1,963.1,2954.1,964,2958,963.9z"/>
</g>
</svg>
